HIERARCHY
ROOT Hips
{
	OFFSET 0.000000 0.000000 0.000000
	CHANNELS 6 Xposition Yposition Zposition Xrotation Yrotation Zrotation
	JOINT LeftUpLeg_virtual
	{
		OFFSET 0.000000 0.000000 0.000000
		CHANNELS 3 Xrotation Yrotation Zrotation
		JOINT LeftUpLeg
		{
			OFFSET 13.026900 -6.336304 -1.092800
			CHANNELS 3 Xrotation Yrotation Zrotation
			JOINT LeftLeg
			{
				OFFSET 0.524474 -46.096886 9.782700
				CHANNELS 3 Xrotation Yrotation Zrotation
				JOINT LeftFoot
				{
					OFFSET -0.524474 -53.427422 -12.948200
					CHANNELS 3 Xrotation Yrotation Zrotation
					JOINT LeftToeBase
					{
						OFFSET 0.192200 -14.009700 16.364100
						CHANNELS 3 Xrotation Yrotation Zrotation
						JOINT LeftToe_End
						{
							OFFSET -1.784700 -0.561700 9.474800
							CHANNELS 3 Xrotation Yrotation Zrotation
							End Site
							{
								OFFSET 0 0 0
							}
						}
					}
				}
			}
		}
	}
	JOINT RightUpLeg_virtual
	{
		OFFSET 0.000000 0.000000 0.000000
		CHANNELS 3 Xrotation Yrotation Zrotation
		JOINT RightUpLeg
		{
			OFFSET -12.883000 -6.336304 -1.092800
			CHANNELS 3 Xrotation Yrotation Zrotation
			JOINT RightLeg
			{
				OFFSET -0.524587 -46.096825 9.782800
				CHANNELS 3 Xrotation Yrotation Zrotation
				JOINT RightFoot
				{
					OFFSET 0.524587 -53.427383 -12.948300
					CHANNELS 3 Xrotation Yrotation Zrotation
					JOINT RightToeBase
					{
						OFFSET -0.192200 -14.009700 16.364100
						CHANNELS 3 Xrotation Yrotation Zrotation
						JOINT RightToe_End
						{
							OFFSET 1.784700 -0.561700 9.474800
							CHANNELS 3 Xrotation Yrotation Zrotation
							End Site
							{
								OFFSET 0 0 0
							}
						}
					}
				}
			}
		}
	}
	JOINT Spine_virtual
	{
		OFFSET 0.000000 0.000000 0.000000
		CHANNELS 3 Xrotation Yrotation Zrotation
		JOINT Spine
		{
			OFFSET 0.072000 7.257294 -0.789700
			CHANNELS 3 Xrotation Yrotation Zrotation
			JOINT Spine1
			{
				OFFSET 0.000000 12.508769 -0.658067
				CHANNELS 3 Xrotation Yrotation Zrotation
				JOINT Spine1_split
				{
					OFFSET 0.000000 12.508769 -0.658067
					CHANNELS 3 Xrotation Yrotation Zrotation
					JOINT Spine2
					{
						OFFSET 0.000000 12.508769 -0.658067
						CHANNELS 3 Xrotation Yrotation Zrotation
						JOINT Neck_virtual
						{
							OFFSET 0.000000 0.000000 0.000000
							CHANNELS 3 Xrotation Yrotation Zrotation
							JOINT Neck
							{
								OFFSET 0.000000 14.033295 7.520400
								CHANNELS 3 Xrotation Yrotation Zrotation
								JOINT Head
								{
									OFFSET 0.000000 8.198502 5.703100
									CHANNELS 3 Xrotation Yrotation Zrotation
									JOINT HeadTop_End
									{
										OFFSET 0.000000 17.760803 13.332701
										CHANNELS 3 Xrotation Yrotation Zrotation
										End Site
										{
											OFFSET 0 0 0
										}
									}
								}
							}
						}
						JOINT LeftShoulder_virtual
						{
							OFFSET 0.000000 0.000000 0.000000
							CHANNELS 3 Xrotation Yrotation Zrotation
							JOINT LeftShoulder
							{
								OFFSET 6.292450 5.785301 -0.669000
								CHANNELS 3 Xrotation Yrotation Zrotation
								JOINT LeftShoulder_split
								{
									OFFSET 6.292450 5.785301 -0.669000
									CHANNELS 3 Xrotation Yrotation Zrotation
									JOINT LeftArm
									{
										OFFSET 13.907140 -6.093903 1.965100
										CHANNELS 3 Xrotation Yrotation Zrotation
										JOINT LeftForeArm
										{
											OFFSET 34.140198 0.000000 0.000000
											CHANNELS 3 Xrotation Yrotation Zrotation
											JOINT LeftHand
											{
												OFFSET 40.960209 0.000000 0.000000
												CHANNELS 3 Xrotation Yrotation Zrotation
												End Site
												{
													OFFSET 0 0 0
												}
											}
										}
									}
								}
							}
						}
						JOINT RightShoulder_virtual
						{
							OFFSET 0.000000 0.000000 0.000000
							CHANNELS 3 Xrotation Yrotation Zrotation
							JOINT RightShoulder
							{
								OFFSET -6.292450 5.785301 -0.669000
								CHANNELS 3 Xrotation Yrotation Zrotation
								JOINT RightShoulder_split
								{
									OFFSET -6.292450 5.785301 -0.669000
									CHANNELS 3 Xrotation Yrotation Zrotation
									JOINT RightArm
									{
										OFFSET -13.907140 -6.093903 1.965100
										CHANNELS 3 Xrotation Yrotation Zrotation
										JOINT RightForeArm
										{
											OFFSET -34.140198 0.000000 0.000000
											CHANNELS 3 Xrotation Yrotation Zrotation
											JOINT RightHand
											{
												OFFSET -40.960209 0.000000 0.000000
												CHANNELS 3 Xrotation Yrotation Zrotation
												End Site
												{
													OFFSET 0 0 0
												}
											}
										}
									}
								}
							}
						}
					}
				}
			}
		}
	}
}
MOTION
Frames: 6
Frame Time: 0.03333333
-0.245887 117.268875 0.570099 0.000000 0.000000 0.000000 -3.659501 3.286125 2.443756 -2.243056 8.318361 3.597959 15.100918 3.760336 0.657472 -8.525259 0.615144 -4.232141 -0.999557 -0.000001 0.000002 0.000000 0.000000 0.000000 -3.659501 3.286125 2.443756 -3.161186 -11.686382 -10.472793 16.611749 -4.877413 -1.286881 -8.792888 -2.001421 8.993214 -2.518104 -0.000005 0.000002 0.000000 0.000000 0.000000 -3.659501 3.286125 2.443756 4.350080 -0.740294 -0.785610 1.013959 -0.170731 0.054478 0.000000 0.000000 0.000000 0.000000 0.000000 0.000000 1.013875 -0.177046 0.069539 0.942214 -0.544783 0.126542 -6.488563 -5.987212 -1.414549 0.000000 0.000000 0.000000 1.013875 -0.177046 0.069539 0.674922 -2.078744 -16.856782 0.000000 0.000000 0.000000 4.778423 -6.136925 -37.933863 0.000024 -66.118936 0.000038 0.000000 0.000000 0.000000 1.013875 -0.177046 0.069539 0.088521 8.205039 21.087099 0.000000 0.000000 0.000000 -3.899870 6.709554 55.252566 -0.000007 9.850092 0.000038 0.000000 0.000000 0.000000 
-0.230251 117.275932 0.615795 0.000000 0.000000 0.000000 -3.665257 3.463457 2.498255 -2.231525 8.345310 3.561591 15.078244 3.640352 0.597645 -8.513305 0.613214 -4.111213 -0.919568 0.000012 0.000001 0.000000 0.000000 0.000000 -3.665257 3.463457 2.498255 -3.075597 -11.684014 -10.524087 16.586740 -5.049912 -1.286720 -8.824813 -2.025882 9.053695 -2.518104 -0.000006 0.000002 0.000000 0.000000 0.000000 -3.665257 3.463457 2.498255 4.241133 -0.672802 -0.811364 0.993089 -0.154234 0.054478 0.000000 0.000000 0.000000 0.000000 0.000000 0.000000 0.993004 -0.161421 0.069539 0.993620 -0.171604 0.051405 -6.089673 -5.592144 -1.285595 0.000000 0.000000 0.000000 0.993004 -0.161421 0.069539 0.669284 -2.097341 -16.856984 0.000000 0.000000 0.000000 4.776128 -6.115299 -37.967744 0.000021 -66.105289 0.000017 0.000000 0.000000 0.000000 0.993004 -0.161421 0.069539 0.288256 8.054238 20.313280 0.000000 0.000000 0.000000 -4.008386 6.518858 55.627147 0.000003 9.463826 -0.000000 0.000000 0.000000 0.000000 
-0.200486 117.291603 0.667240 0.000000 0.000000 0.000000 -3.678287 3.673814 2.585217 -2.176946 8.346787 3.462774 14.998658 3.528428 0.566452 -8.478083 0.608326 -4.013425 -0.902876 -0.000006 0.000001 0.000000 0.000000 0.000000 -3.678287 3.673814 2.585217 -2.967226 -11.681375 -10.612223 16.545580 -5.245479 -1.286983 -8.853809 -2.066122 9.129472 -2.518104 -0.000005 0.000002 0.000000 0.000000 0.000000 -3.678287 3.673814 2.585217 4.134242 -0.608739 -0.829691 0.973502 -0.135125 0.054479 0.000000 0.000000 0.000000 0.000000 0.000000 0.000000 0.973426 -0.142599 0.063642 1.049472 0.229842 -0.024775 -5.607308 -5.052333 -1.113998 0.000000 0.000000 0.000000 0.973426 -0.142599 0.063642 0.674783 -2.075990 -16.886598 0.000000 0.000000 0.000000 4.763883 -6.120305 -37.993272 0.000023 -66.070701 0.000014 0.000000 0.000000 0.000000 0.973426 -0.142599 0.063642 0.496741 7.917477 19.494028 0.000000 0.000000 0.000000 -4.102382 6.374796 55.961400 0.000003 9.187384 -0.000011 0.000000 0.000000 0.000000 
-0.168983 117.308128 0.732460 0.000000 0.000000 0.000000 -3.705407 3.917476 2.671144 -2.104192 8.332605 3.362252 14.912543 3.415033 0.542430 -8.442921 0.594371 -3.933637 -0.882957 -0.000016 0.000001 0.000000 0.000000 0.000000 -3.705407 3.917476 2.671144 -2.818620 -11.676574 -10.694893 16.491418 -5.467762 -1.284464 -8.888263 -2.114958 9.213576 -2.518104 -0.000007 0.000002 0.000000 0.000000 0.000000 -3.705407 3.917476 2.671144 4.018510 -0.546545 -0.834317 0.952045 -0.118682 0.054478 0.000000 0.000000 0.000000 0.000000 0.000000 0.000000 0.951978 -0.126079 0.058449 1.115016 0.642655 -0.104923 -5.058708 -4.538003 -0.906693 0.000000 0.000000 0.000000 0.951978 -0.126079 0.058449 0.674335 -2.062278 -16.938410 0.000000 0.000000 0.000000 4.733431 -6.075013 -38.009012 0.000021 -66.063502 0.000007 0.000000 0.000000 0.000000 0.951978 -0.126079 0.058449 0.722518 7.728452 18.567237 0.000000 0.000000 0.000000 -4.161879 6.358287 56.391497 -0.000002 9.076880 -0.000010 0.000000 0.000000 0.000000 
-0.132212 117.315605 0.790733 0.000000 0.000000 0.000000 -3.719569 4.205256 2.768844 -2.080291 8.309651 3.252236 14.868337 3.253119 0.509417 -8.417714 0.581963 -3.800424 -0.846022 -0.000005 0.000001 0.000000 0.000000 0.000000 -3.719569 4.205256 2.768844 -2.696592 -11.666780 -10.796024 16.468462 -5.733631 -1.279150 -8.935301 -2.161461 9.313473 -2.518104 -0.000004 0.000002 0.000000 0.000000 0.000000 -3.719569 4.205256 2.768844 3.899898 -0.504825 -0.820394 0.927811 -0.111797 0.054478 0.000000 0.000000 0.000000 0.000000 0.000000 0.000000 0.927752 -0.118905 0.055078 1.200912 1.053522 -0.186200 -4.499189 -4.150632 -0.737736 0.000000 0.000000 0.000000 0.927752 -0.118905 0.055078 0.674240 -2.050014 -16.937580 0.000000 0.000000 0.000000 4.716805 -5.983030 -38.063893 -0.000008 -66.065920 -0.000024 0.000000 0.000000 0.000000 0.927752 -0.118905 0.055078 0.954705 7.546253 17.552312 0.000000 0.000000 0.000000 -4.274641 6.486527 56.965970 -0.000002 8.960768 0.000003 0.000000 0.000000 0.000000 
-0.082039 117.307938 0.839664 0.000000 0.000000 0.000000 -3.702284 4.513892 2.877978 -2.115101 8.271011 3.113953 14.862020 3.093072 0.491588 -8.403452 0.566604 -3.683218 -0.808276 -0.000012 -0.000000 0.000000 0.000000 0.000000 -3.702284 4.513892 2.877978 -2.640194 -11.653524 -10.927455 16.497192 -6.031052 -1.273909 -8.998381 -2.195143 9.432310 -2.518104 -0.000007 0.000002 0.000000 0.000000 0.000000 -3.702284 4.513892 2.877978 3.804923 -0.478732 -0.783218 0.909464 -0.107326 0.054478 0.000000 0.000000 0.000000 0.000000 0.000000 0.000000 0.909408 -0.114607 0.052360 1.291621 1.448898 -0.255178 -4.015975 -3.979570 -0.647882 0.000000 0.000000 0.000000 0.909408 -0.114607 0.052360 0.675616 -2.034076 -16.896814 0.000000 0.000000 0.000000 4.724272 -5.879877 -38.130508 0.000014 -66.073775 0.000023 0.000000 0.000000 0.000000 0.909408 -0.114607 0.052360 1.182842 7.409094 16.491285 0.000000 0.000000 0.000000 -4.213235 6.632033 57.602284 0.000000 9.450955 0.000014 0.000000 0.000000 0.000000 
